<svg width="56" height="32" viewBox="0 0 56 32" fill="none" xmlns="http://www.w3.org/2000/svg">
<path fill-rule="evenodd" clip-rule="evenodd" d="M4.2117 27.1975L4.46442 26.1651C3.38743 26.0305 2.31644 25.8762 1.25185 25.7025L0 20.7126C1.84424 21.0604 3.71027 21.3469 5.59596 21.5698C5.59596 21.5698 6.97327 16.0717 7.45484 14.3076C9.40206 7.17435 17.1168 0 26.7327 0C36.3461 0 43.8148 6.78242 45.9994 14.268C46.1549 14.8011 46.3244 15.409 46.5048 16.0763C49.0475 15.0404 51.5271 13.8815 53.9365 12.6067L55.1111 17.2889C52.7 18.5245 50.2241 19.6511 47.6901 20.6622C48.2463 22.8823 48.8348 25.301 49.3988 27.637C49.7619 29.1409 50.1965 30.609 50.6284 32H45.7311C45.4232 30.9628 45.1179 29.8676 44.8464 28.7431C44.3198 26.5621 43.7793 24.3403 43.2677 22.289C34.5096 25.2426 25.1329 26.8431 15.3867 26.8431C13.2986 26.8431 11.2272 26.7696 9.17521 26.6251C9.03697 27.1888 8.89854 27.7541 8.76073 28.3174C8.4499 29.5879 8.0809 30.8307 7.70707 32H2.77535C3.29294 30.4576 3.81066 28.8368 4.2117 27.1975ZM26.7327 4.6986C19.371 4.6986 13.4013 10.3147 11.9725 15.5485C11.5424 17.1241 10.9597 19.4152 10.3185 21.9914C11.9947 22.0929 13.6846 22.1445 15.3867 22.1445C24.7353 22.1445 33.719 20.5903 42.097 17.726C41.8822 16.9219 41.6828 16.2008 41.504 15.5881C39.8549 9.93727 34.0968 4.6986 26.7327 4.6986ZM52.3323 16.7108C52.782 16.7108 53.1466 16.3451 53.1466 15.894C53.1466 15.4429 52.782 15.0772 52.3323 15.0772C51.8826 15.0772 51.5181 15.4429 51.5181 15.894C51.5181 16.3451 51.8826 16.7108 52.3323 16.7108Z" fill="black"/>
</svg>
