<svg width="256" height="256" viewBox="0 0 256 256" fill="none" xmlns="http://www.w3.org/2000/svg">
<rect width="256" height="256" fill="#FCC800"/>
<path fill-rule="evenodd" clip-rule="evenodd" d="M29.7299 174.471L30.7938 170.138C26.26 169.573 21.7515 168.926 17.2699 168.197L12 147.256C19.7636 148.716 27.6191 149.918 35.5572 150.853C35.5572 150.853 41.3552 127.78 43.3825 120.377C51.5796 90.4413 84.0562 60.3333 124.536 60.3333C165.005 60.3333 196.446 88.7965 205.642 120.211C206.297 122.448 207.011 124.999 207.77 127.799C218.474 123.452 228.913 118.588 239.055 113.239L244 132.888C233.85 138.074 223.427 142.801 212.76 147.045C215.102 156.362 217.579 166.512 219.953 176.315C221.481 182.626 223.311 188.788 225.129 194.625H204.513C203.217 190.272 201.932 185.676 200.789 180.957C198.572 171.804 196.297 162.48 194.143 153.872C157.274 166.267 117.802 172.983 76.773 172.983C67.9827 172.983 59.2631 172.675 50.6247 172.068C50.0427 174.434 49.46 176.807 48.8799 179.171C47.5714 184.502 46.018 189.718 44.4443 194.625H23.6833C25.8622 188.152 28.0416 181.35 29.7299 174.471ZM124.536 80.0515C93.5457 80.0515 68.415 103.62 62.4006 125.584C60.5899 132.197 58.1368 141.811 55.4377 152.623C62.494 153.049 69.6078 153.265 76.773 153.265C116.128 153.265 153.946 146.743 189.215 134.723C188.311 131.348 187.471 128.322 186.718 125.75C179.776 102.036 155.537 80.0515 124.536 80.0515ZM232.302 130.462C234.195 130.462 235.73 128.927 235.73 127.034C235.73 125.141 234.195 123.607 232.302 123.607C230.409 123.607 228.875 125.141 228.875 127.034C228.875 128.927 230.409 130.462 232.302 130.462Z" fill="black"/>
</svg>
